<?xml version="1.0" standalone="no"?>
<!DOCTYPE svg PUBLIC "-//W3C//DTD SVG 1.1//EN" 
"http://www.w3.org/Graphics/SVG/1.1/DTD/svg11.dtd">
<svg width="100%" height="100%" version="1.1"
xmlns="http://www.w3.org/2000/svg">
<defs>
  <filter id="MyFilter" filterUnits="userSpaceOnUse" x="0" y="0" width="200" height="120">
    <feGaussianBlur in="SourceAlpha" stdDeviation="4" result="blur"/>
    <!--feOffset in="blur" dx="4" dy="4" result="offsetBlur"/-->
    <feSpecularLighting in="blur" surfaceScale="5" specularConstant=".75" 
                        specularExponent="20" lighting-color="#bbbbbb"  
                        result="specOut">
      <fePointLight x="-5000" y="-10000" z="20000"/>
    </feSpecularLighting>
    <feComposite in="specOut" in2="SourceAlpha" operator="in" result="specOut"/>
    <feComposite in="SourceGraphic" in2="specOut" operator="arithmetic" 
                 k1="0" k2="1" k3="1" k4="0" result="litPaint"/>
    <!--feMerge>
      <feMergeNode in="blur"/>
      <feMergeNode in="litPaint"/>
    </feMerge-->
  </filter>
</defs>
<path filter="url(#MyFilter)" id="trigger" fill="blue" d="M 0,10 A 60,10 0 0,1 120,10 L 997,10 A 3,3 0 0,1 1000,13 L 1000,22 A 3,3 0 0,1 997,25 L 29,25 A 3,3 0 0,0 26,28 L 26,28 A 3,3 0 0,1 23,31 L 18,31 A 3,3 0 0,1 15,28 L 15,28 A 3,3 0 0,0 12,25 L 3,25 A 3,3 0 0,1 0,22 z" />
</svg>